<svg width="24" height="24" viewBox="0 0 24 24" fill="none" xmlns="http://www.w3.org/2000/svg">
<path d="M21.8187 18.6844L21.5929 18.4851C20.9522 17.9143 20.3915 17.2597 19.9258 16.539C19.4171 15.5444 19.1123 14.4582 19.0291 13.3441V10.063C19.0335 8.31319 18.3988 6.62202 17.2442 5.30723C16.0896 3.99243 14.4946 3.14449 12.759 2.92274V2.06592C12.759 1.83074 12.6655 1.6052 12.4993 1.43891C12.333 1.27262 12.1074 1.1792 11.8723 1.1792C11.6371 1.1792 11.4115 1.27262 11.2453 1.43891C11.079 1.6052 10.9855 1.83074 10.9855 2.06592V2.93603C9.26541 3.17376 7.68973 4.02682 6.55032 5.3372C5.41091 6.64758 4.78499 8.32649 4.78849 10.063V13.3441C4.7053 14.4582 4.40045 15.5444 3.89181 16.539C3.43409 17.2579 2.88235 17.9124 2.25122 18.4851L2.02539 18.6844V20.5574H21.8187V18.6844Z" fill="white"/>
<path d="M10.1758 21.2549C10.234 21.6759 10.4427 22.0616 10.7631 22.3408C11.0836 22.62 11.4943 22.7738 11.9193 22.7738C12.3444 22.7738 12.755 22.62 13.0755 22.3408C13.396 22.0616 13.6046 21.6759 13.6629 21.2549H10.1758Z" fill="white"/>
</svg>
