<svg width="24" height="24" viewBox="0 0 24 24" fill="none" xmlns="http://www.w3.org/2000/svg">
<path d="M18.4207 18.4207C17.1427 18.4207 16.1181 19.4453 16.1181 20.7232C16.1181 21.3339 16.3607 21.9196 16.7925 22.3514C17.2243 22.7832 17.81 23.0258 18.4207 23.0258C19.0313 23.0258 19.617 22.7832 20.0488 22.3514C20.4807 21.9196 20.7232 21.3339 20.7232 20.7232C20.7232 20.1126 20.4807 19.5269 20.0488 19.0951C19.617 18.6633 19.0313 18.4207 18.4207 18.4207ZM0 0V2.30258H2.30258L6.44723 11.0409L4.88148 13.8615C4.70878 14.1839 4.60517 14.5638 4.60517 14.9668C4.60517 15.5775 4.84776 16.1631 5.27958 16.595C5.71139 17.0268 6.29707 17.2694 6.90775 17.2694H20.7232V14.9668H7.39129C7.31496 14.9668 7.24175 14.9365 7.18777 14.8825C7.13379 14.8285 7.10347 14.7553 7.10347 14.679C7.10347 14.6214 7.11498 14.5754 7.13801 14.5408L8.17417 12.6642H16.7513C17.6148 12.6642 18.3746 12.1807 18.7661 11.4784L22.8877 4.02952C22.9683 3.84531 23.0258 3.64959 23.0258 3.45387C23.0258 3.14853 22.9045 2.8557 22.6886 2.63979C22.4727 2.42388 22.1799 2.30258 21.8745 2.30258H4.84694L3.76472 0M6.90775 18.4207C5.62982 18.4207 4.60517 19.4453 4.60517 20.7232C4.60517 21.3339 4.84776 21.9196 5.27958 22.3514C5.71139 22.7832 6.29707 23.0258 6.90775 23.0258C7.51843 23.0258 8.1041 22.7832 8.53592 22.3514C8.96774 21.9196 9.21033 21.3339 9.21033 20.7232C9.21033 20.1126 8.96774 19.5269 8.53592 19.0951C8.1041 18.6633 7.51843 18.4207 6.90775 18.4207Z" fill="white"/>
</svg>
