<svg width="28" height="35" viewBox="0 0 28 35" fill="none" xmlns="http://www.w3.org/2000/svg">
<path d="M13.9567 14.4906C17.4272 14.4906 20.2406 11.6772 20.2406 8.20673C20.2406 4.73624 17.4272 1.92285 13.9567 1.92285C10.4862 1.92285 7.67285 4.73624 7.67285 8.20673C7.67285 11.6772 10.4862 14.4906 13.9567 14.4906Z" stroke="#E83143" stroke-width="2.35645"/>
<path d="M26.5204 27.0587C26.5252 26.8011 26.5252 26.5387 26.5252 26.2732C26.5252 22.3694 20.8979 19.2039 13.9574 19.2039C7.01686 19.2039 1.38965 22.3694 1.38965 26.2732C1.38965 30.1771 1.38965 33.3426 13.9574 33.3426C17.4622 33.3426 19.9899 33.0959 21.8122 32.6561" stroke="#E83143" stroke-width="2.35645" stroke-linecap="round"/>
</svg>
