<svg width="38" height="38" viewBox="0 0 38 38" fill="none" xmlns="http://www.w3.org/2000/svg">
<path d="M7.09043 35.7718H30.6904M7.09043 22.6607H30.6904M35.7513 9.28739C35.4846 8.18768 34.9367 7.17616 34.1613 6.35201C33.3859 5.52786 32.4096 4.91938 31.3282 4.58623C30.2468 4.25307 29.0973 4.20669 27.9926 4.45162C26.8878 4.69656 25.8657 5.2244 25.0264 5.98339C24.5683 4.72396 23.7337 3.63601 22.636 2.86721C21.5383 2.09842 20.2306 1.68604 18.8904 1.68604C17.5503 1.68604 16.2426 2.09842 15.1448 2.86721C14.0471 3.63601 13.2125 4.72396 12.7544 5.98339C11.9151 5.2244 10.893 4.69656 9.78826 4.45162C8.68351 4.20669 7.53406 4.25307 6.45264 4.58623C5.37121 4.91938 4.39494 5.52786 3.61954 6.35201C2.84413 7.17616 2.29623 8.18768 2.02955 9.28739C1.8212 10.1456 1.78768 11.0369 1.93099 11.9083C2.07431 12.7797 2.39152 13.6134 2.86374 14.3596C3.33596 15.1059 3.95353 15.7495 4.67968 16.2521C5.40582 16.7547 6.22568 17.106 7.09043 17.2852V26.594C7.09043 27.2895 7.3667 27.9565 7.85846 28.4482C8.35023 28.94 9.0172 29.2163 9.71265 29.2163H28.0682C28.7636 29.2163 29.4306 28.94 29.9224 28.4482C30.4141 27.9565 30.6904 27.2895 30.6904 26.594V17.2852C31.5552 17.106 32.375 16.7547 33.1012 16.2521C33.8273 15.7495 34.4449 15.1059 34.9171 14.3596C35.3893 13.6134 35.7065 12.7797 35.8498 11.9083C35.9932 11.0369 35.9596 10.1456 35.7513 9.28739Z" stroke="#E83143" stroke-width="2.62222" stroke-linecap="round" stroke-linejoin="round"/>
</svg>
