<svg width="30" height="30" viewBox="0 0 30 30" fill="none" xmlns="http://www.w3.org/2000/svg">
<path d="M10.0045 13.8156L1.5027 5.31372L0 6.81642L6.99914 13.8156H0V14.8783C0 18.8242 1.56752 22.6086 4.35773 25.3988C7.14794 28.189 10.9323 29.7565 14.8782 29.7565C18.8242 29.7565 22.6085 28.189 25.3987 25.3988C28.1889 22.6086 29.7565 18.8242 29.7565 14.8783V13.8156H10.0045ZM14.8782 27.6311C11.681 27.6271 8.6016 26.424 6.24845 24.2596C3.8953 22.0951 2.43961 19.1268 2.16903 15.941H27.5885C27.3179 19.127 25.8621 22.0955 23.5087 24.2599C21.1553 26.4244 18.0756 27.6274 14.8782 27.6311Z" fill="white"/>
<path d="M21.2544 6.37638C20.6873 6.3772 20.1241 6.46869 19.5859 6.64738C18.7955 5.57788 17.7659 4.70807 16.5794 4.10744C15.3929 3.50681 14.0824 3.19201 12.7525 3.18819C10.8637 3.1827 9.02774 3.81141 7.53878 4.97358L2.5652 0L1.0625 1.5027L7.49202 7.93222L8.24337 7.18087C8.83415 6.5869 9.53688 6.11603 10.3109 5.79552C11.0849 5.475 11.9148 5.31122 12.7525 5.31365C13.7101 5.31629 14.6548 5.53384 15.5171 5.95026C16.3794 6.36668 17.1372 6.97135 17.7346 7.71968C17.5078 7.91783 17.2981 8.13468 17.1076 8.36794C16.8093 8.7421 16.4303 9.04404 15.999 9.25125C15.5677 9.45845 15.0951 9.56556 14.6166 9.56458H10.6271V11.69H14.6166C15.4135 11.6917 16.2006 11.5134 16.919 11.1684C17.6374 10.8233 18.2686 10.3205 18.7655 9.69742C19.1783 9.18173 19.7411 8.80701 20.3761 8.62504C21.0111 8.44307 21.687 8.46283 22.3103 8.6816C22.9336 8.90037 23.4735 9.30734 23.8555 9.84627C24.2375 10.3852 24.4426 11.0295 24.4426 11.69H26.568C26.5663 10.2813 26.006 8.93072 25.0098 7.93458C24.0137 6.93844 22.6631 6.37807 21.2544 6.37638Z" fill="white"/>
</svg>
