<svg width="32" height="32" viewBox="0 0 32 32" fill="none" xmlns="http://www.w3.org/2000/svg">
<path d="M11.414 15L3.414 7L2 8.414L8.586 15H2V16C2 19.713 3.475 23.274 6.1005 25.8995C8.72601 28.525 12.287 30 16 30C19.713 30 23.274 28.525 25.8995 25.8995C28.525 23.274 30 19.713 30 16V15H11.414ZM16 28C12.9915 27.9963 10.0939 26.8642 7.87961 24.8275C5.66537 22.7908 4.29561 19.9977 4.041 17H27.96C27.7054 19.9979 26.3355 22.7912 24.121 24.8279C21.9066 26.8646 19.0087 27.9965 16 28Z" fill="black"/>
<path d="M22 8C21.4664 8.00077 20.9364 8.08685 20.43 8.255C19.6863 7.24863 18.7175 6.43016 17.601 5.86499C16.4845 5.29981 15.2514 5.00359 14 5C12.2227 4.99483 10.4951 5.58643 9.094 6.68L4.414 2L3 3.414L9.05 9.464L9.757 8.757C10.3129 8.19809 10.9742 7.75501 11.7025 7.45342C12.4308 7.15183 13.2117 6.99771 14 7C14.901 7.00248 15.79 7.20719 16.6014 7.59903C17.4128 7.99087 18.1258 8.55985 18.688 9.264C18.4746 9.45045 18.2772 9.6545 18.098 9.874C17.8173 10.2261 17.4607 10.5102 17.0548 10.7052C16.6489 10.9001 16.2043 11.0009 15.754 11H12V13H15.754C16.5039 13.0016 17.2445 12.8338 17.9205 12.5091C18.5965 12.1844 19.1904 11.7113 19.658 11.125C20.0465 10.6398 20.576 10.2872 21.1736 10.1159C21.7711 9.94469 22.4071 9.96329 22.9936 10.1691C23.5801 10.375 24.0881 10.758 24.4476 11.2651C24.807 11.7722 25 12.3784 25 13H27C26.9984 11.6744 26.4711 10.4036 25.5338 9.46622C24.5964 8.52888 23.3256 8.00159 22 8Z" fill="black"/>
</svg>
