<svg width="264" height="76" viewBox="0 0 264 76" fill="none" xmlns="http://www.w3.org/2000/svg">
<path d="M98.3473 17.0001C97.8382 16.0197 97.1312 15.2843 96.2261 14.7941C95.3211 14.285 94.2746 14.0305 93.0868 14.0305C91.7858 14.0305 90.6262 14.3227 89.608 14.9072C88.5898 15.4917 87.7885 16.3214 87.204 17.3961C86.6383 18.4708 86.3555 19.7153 86.3555 21.1294C86.3555 22.5435 86.6383 23.7974 87.204 24.891C87.7885 25.9657 88.5898 26.7953 89.608 27.3798C90.6262 27.9643 91.7858 28.2566 93.0868 28.2566C94.8403 28.2566 96.2638 27.7664 97.3574 26.7859C98.451 25.8054 99.1204 24.4762 99.3655 22.7981H91.9837V20.2243H102.816V22.7415C102.609 24.2688 102.062 25.6735 101.176 26.9556C100.308 28.2377 99.1675 29.2653 97.7534 30.0384C96.3581 30.7926 94.8026 31.1697 93.0868 31.1697C91.239 31.1697 89.5514 30.7455 88.0242 29.897C86.4969 29.0296 85.2808 27.8324 84.3757 26.3051C83.4895 24.7778 83.0465 23.0526 83.0465 21.1294C83.0465 19.2062 83.4895 17.4809 84.3757 15.9537C85.2808 14.4264 86.4969 13.2386 88.0242 12.3901C89.5703 11.5227 91.2578 11.0891 93.0868 11.0891C95.1797 11.0891 97.0369 11.6076 98.6584 12.6446C100.299 13.6628 101.487 15.1146 102.222 17.0001H98.3473ZM114.057 15.1618C115.244 15.1618 116.3 15.4163 117.224 15.9254C118.167 16.4345 118.902 17.1887 119.43 18.188C119.977 19.1873 120.25 20.394 120.25 21.8082V31H117.054V22.289C117.054 20.8937 116.706 19.8284 116.008 19.093C115.31 18.3388 114.358 17.9617 113.151 17.9617C111.945 17.9617 110.983 18.3388 110.267 19.093C109.569 19.8284 109.22 20.8937 109.22 22.289V31H105.996V10.0709H109.22V17.2264C109.767 16.5665 110.455 16.0574 111.285 15.6991C112.133 15.3409 113.057 15.1618 114.057 15.1618ZM123.288 23.1374C123.288 21.5725 123.609 20.1866 124.25 18.9799C124.91 17.7732 125.796 16.8399 126.909 16.1799C128.04 15.5012 129.284 15.1618 130.642 15.1618C131.867 15.1618 132.933 15.4069 133.838 15.8971C134.762 16.3685 135.497 16.9624 136.044 17.6789V15.4163H139.296V31H136.044V28.6808C135.497 29.4162 134.752 30.029 133.809 30.5192C132.867 31.0094 131.792 31.2545 130.585 31.2545C129.247 31.2545 128.021 30.9152 126.909 30.2364C125.796 29.5387 124.91 28.5771 124.25 27.3515C123.609 26.1071 123.288 24.7024 123.288 23.1374ZM136.044 23.194C136.044 22.1193 135.818 21.186 135.365 20.394C134.931 19.6021 134.356 18.9988 133.64 18.584C132.923 18.1691 132.15 17.9617 131.321 17.9617C130.491 17.9617 129.718 18.1691 129.001 18.584C128.285 18.9799 127.7 19.5738 127.248 20.3658C126.814 21.1388 126.597 22.0627 126.597 23.1374C126.597 24.2122 126.814 25.1549 127.248 25.9657C127.7 26.7765 128.285 27.3987 129.001 27.8324C129.737 28.2472 130.51 28.4546 131.321 28.4546C132.15 28.4546 132.923 28.2472 133.64 27.8324C134.356 27.4175 134.931 26.8142 135.365 26.0223C135.818 25.2115 136.044 24.2688 136.044 23.194ZM146.755 17.6789C147.227 16.887 147.849 16.2742 148.622 15.8405C149.414 15.388 150.347 15.1618 151.422 15.1618V18.4991H150.602C149.338 18.4991 148.377 18.8196 147.717 19.4607C147.076 20.1018 146.755 21.2142 146.755 22.7981V31H143.531V15.4163H146.755V17.6789ZM153.311 21.1294C153.311 19.2062 153.754 17.4809 154.64 15.9537C155.545 14.4264 156.761 13.2386 158.289 12.3901C159.835 11.5227 161.522 11.0891 163.351 11.0891C165.444 11.0891 167.301 11.6076 168.923 12.6446C170.563 13.6628 171.751 15.1146 172.487 17.0001H168.612C168.103 15.9631 167.396 15.19 166.491 14.681C165.586 14.1719 164.539 13.9173 163.351 13.9173C162.05 13.9173 160.891 14.2096 159.872 14.7941C158.854 15.3786 158.053 16.2176 157.468 17.3112C156.903 18.4048 156.62 19.6775 156.62 21.1294C156.62 22.5812 156.903 23.8539 157.468 24.9475C158.053 26.0411 158.854 26.8896 159.872 27.493C160.891 28.0775 162.05 28.3697 163.351 28.3697C164.539 28.3697 165.586 28.1152 166.491 27.6061C167.396 27.097 168.103 26.324 168.612 25.2869H172.487C171.751 27.1724 170.563 28.6243 168.923 29.6424C167.301 30.6606 165.444 31.1697 163.351 31.1697C161.503 31.1697 159.816 30.7455 158.289 29.897C156.761 29.0296 155.545 27.8324 154.64 26.3051C153.754 24.7778 153.311 23.0526 153.311 21.1294ZM184.321 15.1618C185.509 15.1618 186.565 15.4163 187.489 15.9254C188.431 16.4345 189.167 17.1887 189.695 18.188C190.241 19.1873 190.515 20.394 190.515 21.8082V31H187.319V22.289C187.319 20.8937 186.97 19.8284 186.272 19.093C185.575 18.3388 184.623 17.9617 183.416 17.9617C182.209 17.9617 181.248 18.3388 180.531 19.093C179.833 19.8284 179.485 20.8937 179.485 22.289V31H176.26V10.0709H179.485V17.2264C180.031 16.5665 180.72 16.0574 181.549 15.6991C182.398 15.3409 183.322 15.1618 184.321 15.1618ZM208.741 15.4163V31H205.516V29.1616C205.007 29.8027 204.338 30.3118 203.508 30.6889C202.698 31.0471 201.83 31.2263 200.906 31.2263C199.681 31.2263 198.578 30.9717 197.597 30.4626C196.636 29.9535 195.872 29.1993 195.306 28.2C194.76 27.2007 194.486 25.994 194.486 24.5799V15.4163H197.682V24.0991C197.682 25.4943 198.031 26.5691 198.729 27.3233C199.426 28.0586 200.378 28.4263 201.585 28.4263C202.792 28.4263 203.744 28.0586 204.442 27.3233C205.158 26.5691 205.516 25.4943 205.516 24.0991V15.4163H208.741ZM216.219 10.0709V31H212.995V10.0709H216.219ZM227.211 31.2545C225.741 31.2545 224.412 30.9246 223.224 30.2647C222.036 29.5859 221.102 28.6431 220.424 27.4364C219.745 26.2108 219.406 24.7967 219.406 23.194C219.406 21.6102 219.754 20.2055 220.452 18.9799C221.15 17.7543 222.102 16.8116 223.308 16.1517C224.515 15.4917 225.863 15.1618 227.353 15.1618C228.842 15.1618 230.191 15.4917 231.397 16.1517C232.604 16.8116 233.556 17.7543 234.254 18.9799C234.951 20.2055 235.3 21.6102 235.3 23.194C235.3 24.7778 234.942 26.1825 234.226 27.4081C233.509 28.6337 232.529 29.5859 231.284 30.2647C230.059 30.9246 228.701 31.2545 227.211 31.2545ZM227.211 28.4546C228.041 28.4546 228.814 28.2566 229.531 27.8606C230.266 27.4647 230.86 26.8707 231.312 26.0788C231.765 25.2869 231.991 24.3253 231.991 23.194C231.991 22.0627 231.774 21.1105 231.341 20.3375C230.907 19.5456 230.332 18.9516 229.616 18.5557C228.899 18.1597 228.126 17.9617 227.296 17.9617C226.467 17.9617 225.694 18.1597 224.977 18.5557C224.28 18.9516 223.723 19.5456 223.308 20.3375C222.894 21.1105 222.686 22.0627 222.686 23.194C222.686 24.8721 223.111 26.1731 223.959 27.097C224.826 28.002 225.91 28.4546 227.211 28.4546ZM90.5979 65.198C89.278 65.198 88.0902 64.9717 87.0343 64.5192C85.9784 64.0478 85.1488 63.3879 84.5454 62.5394C83.9421 61.6909 83.6404 60.7011 83.6404 59.5697H87.0909C87.1663 60.4182 87.4962 61.1159 88.0808 61.6627C88.6841 62.2095 89.5232 62.4829 90.5979 62.4829C91.7103 62.4829 92.5777 62.2189 93.1999 61.6909C93.8221 61.1441 94.1332 60.4465 94.1332 59.598C94.1332 58.9381 93.9352 58.4007 93.5393 57.9859C93.1622 57.5711 92.6814 57.2506 92.0969 57.0243C91.5312 56.7981 90.7393 56.5529 89.7211 56.289C88.439 55.9496 87.3925 55.6102 86.5818 55.2708C85.7899 54.9126 85.1111 54.3658 84.5454 53.6304C83.9798 52.8951 83.697 51.9146 83.697 50.689C83.697 49.5577 83.9798 48.5678 84.5454 47.7194C85.1111 46.8709 85.903 46.2204 86.9212 45.7679C87.9393 45.3153 89.1178 45.0891 90.4565 45.0891C92.3608 45.0891 93.9164 45.5699 95.1231 46.5315C96.3487 47.4742 97.0275 48.7752 97.1595 50.4345H93.5958C93.5393 49.718 93.1999 49.1052 92.5777 48.5961C91.9555 48.087 91.1353 47.8325 90.1171 47.8325C89.1932 47.8325 88.439 48.0682 87.8545 48.5396C87.27 49.0109 86.9777 49.6897 86.9777 50.5759C86.9777 51.1793 87.1569 51.6789 87.5151 52.0749C87.8922 52.452 88.3636 52.7537 88.9292 52.9799C89.4949 53.2062 90.2679 53.4513 91.2484 53.7153C92.5494 54.0735 93.6053 54.4317 94.416 54.79C95.2457 55.1482 95.9433 55.7045 96.509 56.4587C97.0935 57.194 97.3857 58.1839 97.3857 59.4283C97.3857 60.4277 97.1123 61.3704 96.5655 62.2566C96.0376 63.1428 95.2551 63.8593 94.2181 64.4061C93.1999 64.934 91.9932 65.198 90.5979 65.198ZM115.473 56.8263C115.473 57.4108 115.435 57.9388 115.36 58.4102H103.453C103.547 59.6546 104.009 60.6539 104.839 61.4081C105.668 62.1623 106.686 62.5394 107.893 62.5394C109.628 62.5394 110.853 61.8135 111.57 60.3617H115.049C114.577 61.7946 113.719 62.9731 112.475 63.897C111.249 64.802 109.722 65.2545 107.893 65.2545C106.404 65.2545 105.065 64.9246 103.877 64.2647C102.708 63.5859 101.784 62.6431 101.105 61.4364C100.445 60.2108 100.115 58.7967 100.115 57.194C100.115 55.5913 100.436 54.1866 101.077 52.9799C101.737 51.7543 102.651 50.8116 103.82 50.1517C105.008 49.4917 106.366 49.1618 107.893 49.1618C109.364 49.1618 110.674 49.4823 111.824 50.1234C112.975 50.7644 113.87 51.6695 114.511 52.8385C115.152 53.9887 115.473 55.3179 115.473 56.8263ZM112.107 55.8082C112.088 54.6203 111.664 53.6681 110.835 52.9516C110.005 52.2351 108.977 51.8769 107.752 51.8769C106.639 51.8769 105.687 52.2351 104.895 52.9516C104.103 53.6493 103.632 54.6014 103.481 55.8082H112.107ZM121.87 44.0709V65H118.646V44.0709H121.87ZM129.327 44.0709V65H126.103V44.0709H129.327ZM147.843 56.8263C147.843 57.4108 147.805 57.9388 147.73 58.4102H135.823C135.917 59.6546 136.379 60.6539 137.209 61.4081C138.039 62.1623 139.057 62.5394 140.263 62.5394C141.998 62.5394 143.224 61.8135 143.94 60.3617H147.419C146.948 61.7946 146.09 62.9731 144.845 63.897C143.62 64.802 142.092 65.2545 140.263 65.2545C138.774 65.2545 137.435 64.9246 136.247 64.2647C135.078 63.5859 134.154 62.6431 133.476 61.4364C132.816 60.2108 132.486 58.7967 132.486 57.194C132.486 55.5913 132.806 54.1866 133.447 52.9799C134.107 51.7543 135.022 50.8116 136.191 50.1517C137.379 49.4917 138.736 49.1618 140.263 49.1618C141.734 49.1618 143.045 49.4823 144.195 50.1234C145.345 50.7644 146.24 51.6695 146.882 52.8385C147.523 53.9887 147.843 55.3179 147.843 56.8263ZM144.477 55.8082C144.459 54.6203 144.034 53.6681 143.205 52.9516C142.375 52.2351 141.348 51.8769 140.122 51.8769C139.01 51.8769 138.057 52.2351 137.265 52.9516C136.474 53.6493 136.002 54.6014 135.851 55.8082H144.477ZM154.24 51.6789C154.712 50.887 155.334 50.2742 156.107 49.8405C156.899 49.388 157.832 49.1618 158.907 49.1618V52.4991H158.087C156.823 52.4991 155.862 52.8196 155.202 53.4607C154.561 54.1018 154.24 55.2142 154.24 56.7981V65H151.016V49.4163H154.24V51.6789ZM168.143 55.1294C168.143 53.2062 168.586 51.4809 169.472 49.9537C170.377 48.4264 171.593 47.2386 173.12 46.3901C174.667 45.5227 176.354 45.0891 178.183 45.0891C180.276 45.0891 182.133 45.6076 183.755 46.6446C185.395 47.6628 186.583 49.1146 187.318 51.0001H183.444C182.934 49.9631 182.227 49.19 181.322 48.681C180.417 48.1719 179.371 47.9173 178.183 47.9173C176.882 47.9173 175.722 48.2096 174.704 48.7941C173.686 49.3786 172.885 50.2176 172.3 51.3112C171.735 52.4048 171.452 53.6775 171.452 55.1294C171.452 56.5812 171.735 57.8539 172.3 58.9475C172.885 60.0411 173.686 60.8896 174.704 61.493C175.722 62.0775 176.882 62.3697 178.183 62.3697C179.371 62.3697 180.417 62.1152 181.322 61.6061C182.227 61.097 182.934 60.324 183.444 59.2869H187.318C186.583 61.1724 185.395 62.6243 183.755 63.6424C182.133 64.6606 180.276 65.1697 178.183 65.1697C176.335 65.1697 174.648 64.7455 173.12 63.897C171.593 63.0296 170.377 61.8324 169.472 60.3051C168.586 58.7778 168.143 57.0526 168.143 55.1294ZM205.375 56.8263C205.375 57.4108 205.337 57.9388 205.262 58.4102H193.355C193.449 59.6546 193.911 60.6539 194.741 61.4081C195.57 62.1623 196.588 62.5394 197.795 62.5394C199.53 62.5394 200.755 61.8135 201.472 60.3617H204.951C204.479 61.7946 203.621 62.9731 202.377 63.897C201.151 64.802 199.624 65.2545 197.795 65.2545C196.306 65.2545 194.967 64.9246 193.779 64.2647C192.61 63.5859 191.686 62.6431 191.007 61.4364C190.347 60.2108 190.018 58.7967 190.018 57.194C190.018 55.5913 190.338 54.1866 190.979 52.9799C191.639 51.7543 192.554 50.8116 193.723 50.1517C194.91 49.4917 196.268 49.1618 197.795 49.1618C199.266 49.1618 200.576 49.4823 201.726 50.1234C202.877 50.7644 203.772 51.6695 204.413 52.8385C205.054 53.9887 205.375 55.3179 205.375 56.8263ZM202.009 55.8082C201.99 54.6203 201.566 53.6681 200.737 52.9516C199.907 52.2351 198.879 51.8769 197.654 51.8769C196.541 51.8769 195.589 52.2351 194.797 52.9516C194.005 53.6493 193.534 54.6014 193.383 55.8082H202.009ZM216.41 49.1618C217.636 49.1618 218.73 49.4163 219.691 49.9254C220.672 50.4345 221.435 51.1887 221.982 52.188C222.529 53.1873 222.802 54.394 222.802 55.8082V65H219.606V56.289C219.606 54.8937 219.258 53.8284 218.56 53.093C217.862 52.3388 216.91 51.9617 215.703 51.9617C214.497 51.9617 213.535 52.3388 212.819 53.093C212.121 53.8284 211.772 54.8937 211.772 56.289V65H208.548V49.4163H211.772V51.1981C212.3 50.557 212.969 50.0574 213.78 49.6991C214.61 49.3409 215.487 49.1618 216.41 49.1618ZM230.677 52.0466V60.6728C230.677 61.2573 230.809 61.6815 231.073 61.9455C231.355 62.1906 231.827 62.3132 232.487 62.3132H234.466V65H231.921C230.469 65 229.357 64.6606 228.584 63.9818C227.811 63.303 227.424 62.2 227.424 60.6728V52.0466H225.586V49.4163H227.424V45.5416H230.677V49.4163H234.466V52.0466H230.677ZM251.721 56.8263C251.721 57.4108 251.683 57.9388 251.608 58.4102H239.701C239.795 59.6546 240.257 60.6539 241.087 61.4081C241.916 62.1623 242.934 62.5394 244.141 62.5394C245.876 62.5394 247.101 61.8135 247.818 60.3617H251.297C250.825 61.7946 249.967 62.9731 248.723 63.897C247.497 64.802 245.97 65.2545 244.141 65.2545C242.651 65.2545 241.313 64.9246 240.125 64.2647C238.956 63.5859 238.032 62.6431 237.353 61.4364C236.693 60.2108 236.363 58.7967 236.363 57.194C236.363 55.5913 236.684 54.1866 237.325 52.9799C237.985 51.7543 238.899 50.8116 240.068 50.1517C241.256 49.4917 242.614 49.1618 244.141 49.1618C245.612 49.1618 246.922 49.4823 248.072 50.1234C249.222 50.7644 250.118 51.6695 250.759 52.8385C251.4 53.9887 251.721 55.3179 251.721 56.8263ZM248.355 55.8082C248.336 54.6203 247.912 53.6681 247.082 52.9516C246.253 52.2351 245.225 51.8769 244 51.8769C242.887 51.8769 241.935 52.2351 241.143 52.9516C240.351 53.6493 239.88 54.6014 239.729 55.8082H248.355ZM258.118 51.6789C258.589 50.887 259.212 50.2742 259.985 49.8405C260.776 49.388 261.71 49.1618 262.785 49.1618V52.4991H261.964C260.701 52.4991 259.739 52.8196 259.08 53.4607C258.438 54.1018 258.118 55.2142 258.118 56.7981V65H254.894V49.4163H258.118V51.6789Z" fill="black"/>
<path d="M27.1082 35.625L8.10825 16.625L4.75 19.9832L20.3918 35.625H4.75V38C4.75 46.8184 8.25311 55.2757 14.4887 61.5113C20.7243 67.7469 29.1816 71.25 38 71.25C46.8184 71.25 55.2757 67.7469 61.5113 61.5113C67.7469 55.2757 71.25 46.8184 71.25 38V35.625H27.1082ZM38 66.5C30.8549 66.4911 23.9729 63.8025 18.7141 58.9654C13.4552 54.1283 10.2021 47.4945 9.59737 40.375H66.405C65.8003 47.4949 62.5468 54.129 57.2874 58.9662C52.0281 63.8034 45.1456 66.4917 38 66.5Z" fill="black"/>
<path d="M52.25 19C50.9827 19.0018 49.7239 19.2063 48.5213 19.6056C46.7549 17.2155 44.454 15.2716 41.8024 13.9293C39.1508 12.587 36.222 11.8835 33.25 11.875C29.0289 11.8627 24.9258 13.2678 21.5982 15.865L10.4833 4.75L7.125 8.10825L21.4938 22.477L23.1729 20.7979C24.4931 19.4705 26.0636 18.4182 27.7934 17.7019C29.5231 16.9856 31.3778 16.6196 33.25 16.625C35.39 16.6309 37.5013 17.1171 39.4283 18.0477C41.3553 18.9783 43.0488 20.3296 44.384 22.002C43.8772 22.4448 43.4084 22.9294 42.9827 23.4507C42.3161 24.2869 41.4692 24.9617 40.5052 25.4248C39.5412 25.8878 38.4852 26.1272 37.4157 26.125H28.5V30.875H37.4157C39.1968 30.8787 40.9557 30.4802 42.5612 29.7091C44.1667 28.9381 45.5773 27.8144 46.6878 26.4219C47.6103 25.2694 48.8681 24.432 50.2872 24.0253C51.7063 23.6186 53.2168 23.6628 54.6097 24.1517C56.0026 24.6406 57.2093 25.5501 58.063 26.7545C58.9166 27.9589 59.3751 29.3988 59.375 30.875H64.125C64.1212 27.7267 62.8689 24.7085 60.6427 22.4823C58.4166 20.2561 55.3983 19.0038 52.25 19Z" fill="black"/>
</svg>
