<svg width="20" height="20" viewBox="0 0 20 20" fill="none" xmlns="http://www.w3.org/2000/svg">
<path d="M9.56458 0C10.8329 0 12.0493 0.503847 12.9462 1.4007C13.843 2.29755 14.3469 3.51395 14.3469 4.78229C14.3469 6.05063 13.843 7.26702 12.9462 8.16388C12.0493 9.06073 10.8329 9.56458 9.56458 9.56458C8.29623 9.56458 7.07984 9.06073 6.18299 8.16388C5.28613 7.26702 4.78229 6.05063 4.78229 4.78229C4.78229 3.51395 5.28613 2.29755 6.18299 1.4007C7.07984 0.503847 8.29623 0 9.56458 0ZM9.56458 11.9557C14.849 11.9557 19.1292 14.0958 19.1292 16.738V19.1292H0V16.738C0 14.0958 4.28015 11.9557 9.56458 11.9557Z" fill="white"/>
</svg>
