<svg width="25" height="25" viewBox="0 0 25 25" fill="none" xmlns="http://www.w3.org/2000/svg">
<path d="M22.5082 19.2561L22.2824 19.0569C21.6417 18.4861 21.0809 17.8315 20.6152 17.1108C20.1066 16.1161 19.8017 15.0299 19.7185 13.9159V10.6347C19.7229 8.88496 19.0882 7.1938 17.9336 5.879C16.7791 4.5642 15.1841 3.71627 13.4484 3.49452V2.63769C13.4484 2.40252 13.355 2.17698 13.1887 2.01069C13.0224 1.8444 12.7969 1.75098 12.5617 1.75098C12.3265 1.75098 12.101 1.8444 11.9347 2.01069C11.7684 2.17698 11.675 2.40252 11.675 2.63769V3.5078C9.95487 3.74554 8.37918 4.5986 7.23977 5.90898C6.10036 7.21936 5.47444 8.89827 5.47794 10.6347V13.9159C5.39475 15.0299 5.0899 16.1161 4.58126 17.1108C4.12355 17.8297 3.5718 18.4842 2.94067 19.0569L2.71484 19.2561V21.1292H22.5082V19.2561Z" fill="black"/>
<path d="M10.8652 21.8267C10.9235 22.2477 11.1321 22.6334 11.4526 22.9126C11.7731 23.1918 12.1837 23.3456 12.6088 23.3456C13.0338 23.3456 13.4445 23.1918 13.765 22.9126C14.0854 22.6334 14.2941 22.2477 14.3523 21.8267H10.8652Z" fill="black"/>
</svg>
