<svg width="24" height="24" viewBox="0 0 24 24" fill="none" xmlns="http://www.w3.org/2000/svg">
<path d="M19.1755 19.2952C17.8976 19.2952 16.873 20.3198 16.873 21.5978C16.873 22.2084 17.1156 22.7941 17.5474 23.2259C17.9792 23.6577 18.5649 23.9003 19.1755 23.9003C19.7862 23.9003 20.3719 23.6577 20.8037 23.2259C21.2355 22.7941 21.4781 22.2084 21.4781 21.5978C21.4781 20.9871 21.2355 20.4014 20.8037 19.9696C20.3719 19.5378 19.7862 19.2952 19.1755 19.2952ZM0.754883 0.874512V3.17709H3.05747L7.20212 11.9154L5.63636 14.7361C5.46366 15.0584 5.36005 15.4383 5.36005 15.8413C5.36005 16.452 5.60264 17.0377 6.03446 17.4695C6.46628 17.9013 7.05195 18.1439 7.66263 18.1439H21.4781V15.8413H8.14617C8.06984 15.8413 7.99663 15.811 7.94265 15.757C7.88868 15.703 7.85835 15.6298 7.85835 15.5535C7.85835 15.4959 7.86986 15.4499 7.89289 15.4153L8.92905 13.5387H17.5062C18.3696 13.5387 19.1295 13.0552 19.5209 12.3529L23.6426 4.90403C23.7231 4.71983 23.7807 4.52411 23.7807 4.32839C23.7807 4.02304 23.6594 3.73021 23.4435 3.5143C23.2276 3.29839 22.9348 3.17709 22.6294 3.17709H5.60182L4.51961 0.874512M7.66263 19.2952C6.3847 19.2952 5.36005 20.3198 5.36005 21.5978C5.36005 22.2084 5.60264 22.7941 6.03446 23.2259C6.46628 23.6577 7.05195 23.9003 7.66263 23.9003C8.27331 23.9003 8.85898 23.6577 9.2908 23.2259C9.72262 22.7941 9.96521 22.2084 9.96521 21.5978C9.96521 20.9871 9.72262 20.4014 9.2908 19.9696C8.85898 19.5378 8.27331 19.2952 7.66263 19.2952Z" fill="black"/>
</svg>
