<svg width="20" height="20" viewBox="0 0 20 20" fill="none" xmlns="http://www.w3.org/2000/svg">
<path d="M10.34 0.354004C11.6083 0.354004 12.8247 0.85785 13.7216 1.7547C14.6184 2.65156 15.1223 3.86795 15.1223 5.13629C15.1223 6.40463 14.6184 7.62103 13.7216 8.51788C12.8247 9.41473 11.6083 9.91858 10.34 9.91858C9.07162 9.91858 7.85523 9.41473 6.95838 8.51788C6.06152 7.62103 5.55768 6.40463 5.55768 5.13629C5.55768 3.86795 6.06152 2.65156 6.95838 1.7547C7.85523 0.85785 9.07162 0.354004 10.34 0.354004ZM10.34 12.3097C15.6244 12.3097 19.9045 14.4498 19.9045 17.092V19.4832H0.775391V17.092C0.775391 14.4498 5.05554 12.3097 10.34 12.3097Z" fill="black"/>
</svg>
